<svg width="224" height="30" viewBox="0 0 224 30" fill="none" xmlns="http://www.w3.org/2000/svg">
<rect width="30" height="30" fill="#FCEED5"/>
<g clip-path="url(#clip0_12_1454)">
<path d="M27 11.9462C27.0004 12.3526 26.9783 12.7588 26.9338 13.1627C26.4 18.211 22.531 23.52 15 25.9655C7.48139 23.5324 3.60001 18.24 3.06622 13.1627C3.02158 12.7588 2.99948 12.3526 3.00001 11.9462C3.00001 7.9324 5.44966 4.44826 9.00001 4.44826C10.1563 4.44602 11.299 4.69744 12.3476 5.18481L18.2979 4.91998C19.1641 4.60594 20.0787 4.44628 21 4.44826C24.5504 4.44826 27 7.9324 27 11.9462Z" fill="#DF4D60"/>
<path d="M27 11.9462C27.0004 12.3526 26.9783 12.7588 26.9338 13.1627C25.4524 16.9696 20.669 19.7586 15 19.7586C9.33104 19.7586 4.5476 16.9696 3.06622 13.1627C3.02158 12.7588 2.99948 12.3526 3.00001 11.9462C3.00001 7.9324 5.44966 4.44826 9.00001 4.44826C10.1563 4.44602 11.299 4.69744 12.3476 5.18481L18.2979 4.91998C19.1641 4.60594 20.0787 4.44628 21 4.44826C24.5504 4.44826 27 7.9324 27 11.9462Z" fill="#FF5364"/>
<path d="M24.2069 19.7835C22.4725 21.9915 20.2312 23.7487 17.6731 24.9062C17.4248 25.0262 17.1724 25.1421 16.9158 25.2455C16.3075 25.5103 15.6662 25.7503 15 25.9655C14.7186 25.8745 14.4413 25.7793 14.1724 25.68V21.4138C13.1374 20.2807 12.5492 18.8102 12.5172 17.2759C12.5398 15.8139 12.9146 14.3788 13.6096 13.0924C13.6565 12.9908 13.659 12.8743 13.6166 12.7707C13.5743 12.6672 13.4908 12.5858 13.3862 12.5462C12.1823 12.1299 10.9192 11.9105 9.64548 11.8966C7.66341 11.2345 7.52686 9.25242 7.55582 8.48276C7.56163 8.29954 7.68833 8.14242 7.86617 8.09793L10.2662 7.50207C10.666 7.40062 11.014 7.15437 11.2427 6.81104L12.2151 5.35448C12.2557 5.2952 12.2999 5.23853 12.3475 5.18483C12.553 4.94619 12.8232 4.77227 13.1255 4.68414C14.2787 4.32089 15.4728 4.10266 16.68 4.03448C17.3254 4.06984 17.9202 4.39538 18.2979 4.92C19.1596 6.1032 19.6088 7.53665 19.5765 9C19.5765 10.0593 19.1213 10.6676 18.4965 10.9531V10.9614L18.6165 11.7931L18.7075 12.4303C18.73 12.5943 18.8494 12.7284 19.0096 12.7697C19.705 13.0065 20.3277 13.4184 20.8179 13.9655C21.5834 14.7269 23.1269 17.2138 24.2069 19.7835Z" fill="#35495E"/>
<path d="M18.6166 11.7931C18.2892 11.9191 17.9411 11.9823 17.5903 11.9793C17.1383 11.9763 16.6907 11.8893 16.2703 11.7228C15.7996 11.5322 15.4906 11.0761 15.4883 10.5683V7.75864C15.4883 7.53011 15.6735 7.34485 15.9021 7.34485C16.1306 7.34485 16.3159 7.53011 16.3159 7.75864V10.5683C16.3157 10.7379 16.419 10.8904 16.5766 10.9531C17.1554 11.2024 17.8087 11.2157 18.3972 10.9904C18.4289 10.9764 18.4623 10.9666 18.4966 10.9614L18.6166 11.7931Z" fill="#2C3E50"/>
<path d="M21.6001 20.7186C21.5254 20.9344 21.2915 21.0504 21.0745 20.9793C20.2965 20.6753 19.4181 20.7793 18.7325 21.2566C17.9249 21.8919 17.4623 22.8693 17.4828 23.8966C17.4764 24.2426 17.5412 24.5863 17.6732 24.9062C17.4249 25.0262 17.1725 25.1421 16.9159 25.2455C16.7387 24.8182 16.65 24.3592 16.6552 23.8966C16.6361 22.604 17.2263 21.3778 18.2483 20.5862C19.1511 19.9542 20.3072 19.8072 21.3394 20.1931C21.5551 20.2678 21.6711 20.5017 21.6001 20.7186Z" fill="#2C3E50"/>
<path d="M9.20684 7.76691V9.00001C9.20684 9.22854 9.02158 9.4138 8.79305 9.4138H7.61374C7.56348 9.10616 7.54408 8.79427 7.55581 8.48277C7.56161 8.29954 7.68831 8.14243 7.86615 8.09794L9.20684 7.76691Z" fill="#3F5C6C"/>
</g>
<path d="M39.456 11.32V10.324H41.712V19H40.608V11.32H39.456ZM43.5878 14.572C43.5878 13.196 43.8118 12.124 44.2598 11.356C44.7078 10.58 45.4918 10.192 46.6118 10.192C47.7238 10.192 48.5038 10.58 48.9518 11.356C49.3997 12.124 49.6237 13.196 49.6237 14.572C49.6237 15.972 49.3997 17.06 48.9518 17.836C48.5038 18.612 47.7238 19 46.6118 19C45.4918 19 44.7078 18.612 44.2598 17.836C43.8118 17.06 43.5878 15.972 43.5878 14.572ZM48.5438 14.572C48.5438 13.876 48.4958 13.288 48.3998 12.808C48.3118 12.32 48.1238 11.928 47.8358 11.632C47.5558 11.336 47.1478 11.188 46.6118 11.188C46.0678 11.188 45.6518 11.336 45.3638 11.632C45.0838 11.928 44.8958 12.32 44.7998 12.808C44.7118 13.288 44.6678 13.876 44.6678 14.572C44.6678 15.292 44.7118 15.896 44.7998 16.384C44.8958 16.872 45.0838 17.264 45.3638 17.56C45.6518 17.856 46.0678 18.004 46.6118 18.004C47.1478 18.004 47.5558 17.856 47.8358 17.56C48.1238 17.264 48.3118 16.872 48.3998 16.384C48.4958 15.896 48.5438 15.292 48.5438 14.572ZM51.1229 14.572C51.1229 13.196 51.3469 12.124 51.7949 11.356C52.2429 10.58 53.0269 10.192 54.1469 10.192C55.2589 10.192 56.0389 10.58 56.4869 11.356C56.9349 12.124 57.1589 13.196 57.1589 14.572C57.1589 15.972 56.9349 17.06 56.4869 17.836C56.0389 18.612 55.2589 19 54.1469 19C53.0269 19 52.2429 18.612 51.7949 17.836C51.3469 17.06 51.1229 15.972 51.1229 14.572ZM56.0789 14.572C56.0789 13.876 56.0309 13.288 55.9349 12.808C55.8469 12.32 55.6589 11.928 55.3709 11.632C55.0909 11.336 54.6829 11.188 54.1469 11.188C53.6029 11.188 53.1869 11.336 52.8989 11.632C52.6189 11.928 52.4309 12.32 52.3349 12.808C52.2469 13.288 52.2029 13.876 52.2029 14.572C52.2029 15.292 52.2469 15.896 52.3349 16.384C52.4309 16.872 52.6189 17.264 52.8989 17.56C53.1869 17.856 53.6029 18.004 54.1469 18.004C54.6829 18.004 55.0909 17.856 55.3709 17.56C55.6589 17.264 55.8469 16.872 55.9349 16.384C56.0309 15.896 56.0789 15.292 56.0789 14.572ZM58.4181 12.28C58.4181 11.736 58.5821 11.304 58.9101 10.984C59.2381 10.656 59.6581 10.492 60.1701 10.492C60.6821 10.492 61.1021 10.656 61.4301 10.984C61.7581 11.304 61.9221 11.736 61.9221 12.28C61.9221 12.832 61.7581 13.272 61.4301 13.6C61.1021 13.92 60.6821 14.08 60.1701 14.08C59.6581 14.08 59.2381 13.92 58.9101 13.6C58.5821 13.272 58.4181 12.832 58.4181 12.28ZM65.4261 10.624L60.5661 19H59.4861L64.3461 10.624H65.4261ZM60.1701 11.164C59.8981 11.164 59.6821 11.26 59.5221 11.452C59.3701 11.636 59.2941 11.912 59.2941 12.28C59.2941 12.648 59.3701 12.928 59.5221 13.12C59.6821 13.312 59.8981 13.408 60.1701 13.408C60.4421 13.408 60.6581 13.312 60.8181 13.12C60.9781 12.92 61.0581 12.64 61.0581 12.28C61.0581 11.912 60.9781 11.636 60.8181 11.452C60.6581 11.26 60.4421 11.164 60.1701 11.164ZM63.0141 17.344C63.0141 16.792 63.1781 16.356 63.5061 16.036C63.8341 15.708 64.2541 15.544 64.7661 15.544C65.2781 15.544 65.6941 15.708 66.0141 16.036C66.3421 16.356 66.5061 16.792 66.5061 17.344C66.5061 17.888 66.3421 18.324 66.0141 18.652C65.6941 18.98 65.2781 19.144 64.7661 19.144C64.2541 19.144 63.8341 18.984 63.5061 18.664C63.1781 18.336 63.0141 17.896 63.0141 17.344ZM64.7541 16.228C64.4821 16.228 64.2661 16.324 64.1061 16.516C63.9461 16.7 63.8661 16.976 63.8661 17.344C63.8661 17.704 63.9461 17.98 64.1061 18.172C64.2661 18.356 64.4821 18.448 64.7541 18.448C65.0261 18.448 65.2421 18.356 65.4021 18.172C65.5621 17.98 65.6421 17.704 65.6421 17.344C65.6421 16.976 65.5621 16.7 65.4021 16.516C65.2421 16.324 65.0261 16.228 64.7541 16.228ZM74.4068 12.304C74.9028 12.304 75.3508 12.412 75.7508 12.628C76.1508 12.836 76.4628 13.152 76.6868 13.576C76.9188 14 77.0348 14.516 77.0348 15.124V19H75.9548V15.28C75.9548 14.624 75.7908 14.124 75.4628 13.78C75.1348 13.428 74.6868 13.252 74.1188 13.252C73.5428 13.252 73.0828 13.432 72.7388 13.792C72.4028 14.152 72.2348 14.676 72.2348 15.364V19H71.1428V10.12H72.2348V13.36C72.4508 13.024 72.7468 12.764 73.1228 12.58C73.5068 12.396 73.9348 12.304 74.4068 12.304ZM84.8185 15.46C84.8185 15.668 84.8065 15.888 84.7825 16.12H79.5265C79.5665 16.768 79.7865 17.276 80.1865 17.644C80.5945 18.004 81.0865 18.184 81.6625 18.184C82.1345 18.184 82.5265 18.076 82.8385 17.86C83.1585 17.636 83.3825 17.34 83.5105 16.972H84.6865C84.5105 17.604 84.1585 18.12 83.6305 18.52C83.1025 18.912 82.4465 19.108 81.6625 19.108C81.0385 19.108 80.4785 18.968 79.9825 18.688C79.4945 18.408 79.1105 18.012 78.8305 17.5C78.5505 16.98 78.4105 16.38 78.4105 15.7C78.4105 15.02 78.5465 14.424 78.8185 13.912C79.0905 13.4 79.4705 13.008 79.9585 12.736C80.4545 12.456 81.0225 12.316 81.6625 12.316C82.2865 12.316 82.8385 12.452 83.3185 12.724C83.7985 12.996 84.1665 13.372 84.4225 13.852C84.6865 14.324 84.8185 14.86 84.8185 15.46ZM83.6905 15.232C83.6905 14.816 83.5985 14.46 83.4145 14.164C83.2305 13.86 82.9785 13.632 82.6585 13.48C82.3465 13.32 81.9985 13.24 81.6145 13.24C81.0625 13.24 80.5905 13.416 80.1985 13.768C79.8145 14.12 79.5945 14.608 79.5385 15.232H83.6905ZM85.8519 15.688C85.8519 15.016 85.9879 14.428 86.2599 13.924C86.5319 13.412 86.9039 13.016 87.3759 12.736C87.8559 12.456 88.3879 12.316 88.9719 12.316C89.5479 12.316 90.0479 12.44 90.4719 12.688C90.8959 12.936 91.2119 13.248 91.4199 13.624V12.424H92.5239V19H91.4199V17.776C91.2039 18.16 90.8799 18.48 90.4479 18.736C90.0239 18.984 89.5279 19.108 88.9599 19.108C88.3759 19.108 87.8479 18.964 87.3759 18.676C86.9039 18.388 86.5319 17.984 86.2599 17.464C85.9879 16.944 85.8519 16.352 85.8519 15.688ZM91.4199 15.7C91.4199 15.204 91.3199 14.772 91.1199 14.404C90.9199 14.036 90.6479 13.756 90.3039 13.564C89.9679 13.364 89.5959 13.264 89.1879 13.264C88.7799 13.264 88.4079 13.36 88.0719 13.552C87.7359 13.744 87.4679 14.024 87.2679 14.392C87.0679 14.76 86.9679 15.192 86.9679 15.688C86.9679 16.192 87.0679 16.632 87.2679 17.008C87.4679 17.376 87.7359 17.66 88.0719 17.86C88.4079 18.052 88.7799 18.148 89.1879 18.148C89.5959 18.148 89.9679 18.052 90.3039 17.86C90.6479 17.66 90.9199 17.376 91.1199 17.008C91.3199 16.632 91.4199 16.196 91.4199 15.7ZM95.4613 10.12V19H94.3693V10.12H95.4613ZM98.6544 13.324V17.2C98.6544 17.52 98.7224 17.748 98.8584 17.884C98.9944 18.012 99.2304 18.076 99.5664 18.076H100.37V19H99.3864C98.7784 19 98.3224 18.86 98.0184 18.58C97.7144 18.3 97.5624 17.84 97.5624 17.2V13.324H96.7104V12.424H97.5624V10.768H98.6544V12.424H100.37V13.324H98.6544ZM104.958 12.304C105.454 12.304 105.902 12.412 106.302 12.628C106.702 12.836 107.014 13.152 107.238 13.576C107.47 14 107.586 14.516 107.586 15.124V19H106.506V15.28C106.506 14.624 106.342 14.124 106.014 13.78C105.686 13.428 105.238 13.252 104.67 13.252C104.094 13.252 103.634 13.432 103.29 13.792C102.954 14.152 102.786 14.676 102.786 15.364V19H101.694V10.12H102.786V13.36C103.002 13.024 103.298 12.764 103.674 12.58C104.058 12.396 104.486 12.304 104.958 12.304ZM115.281 12.316C115.849 12.316 116.345 12.44 116.769 12.688C117.201 12.936 117.521 13.248 117.729 13.624V12.424H118.833V19.144C118.833 19.744 118.705 20.276 118.449 20.74C118.193 21.212 117.825 21.58 117.345 21.844C116.873 22.108 116.321 22.24 115.689 22.24C114.825 22.24 114.105 22.036 113.529 21.628C112.953 21.22 112.613 20.664 112.509 19.96H113.589C113.709 20.36 113.957 20.68 114.333 20.92C114.709 21.168 115.161 21.292 115.689 21.292C116.289 21.292 116.777 21.104 117.153 20.728C117.537 20.352 117.729 19.824 117.729 19.144V17.764C117.513 18.148 117.193 18.468 116.769 18.724C116.345 18.98 115.849 19.108 115.281 19.108C114.697 19.108 114.165 18.964 113.685 18.676C113.213 18.388 112.841 17.984 112.569 17.464C112.297 16.944 112.161 16.352 112.161 15.688C112.161 15.016 112.297 14.428 112.569 13.924C112.841 13.412 113.213 13.016 113.685 12.736C114.165 12.456 114.697 12.316 115.281 12.316ZM117.729 15.7C117.729 15.204 117.629 14.772 117.429 14.404C117.229 14.036 116.957 13.756 116.613 13.564C116.277 13.364 115.905 13.264 115.497 13.264C115.089 13.264 114.717 13.36 114.381 13.552C114.045 13.744 113.777 14.024 113.577 14.392C113.377 14.76 113.277 15.192 113.277 15.688C113.277 16.192 113.377 16.632 113.577 17.008C113.777 17.376 114.045 17.66 114.381 17.86C114.717 18.052 115.089 18.148 115.497 18.148C115.905 18.148 116.277 18.052 116.613 17.86C116.957 17.66 117.229 17.376 117.429 17.008C117.629 16.632 117.729 16.196 117.729 15.7ZM126.51 12.424V19H125.418V18.028C125.21 18.364 124.918 18.628 124.542 18.82C124.174 19.004 123.766 19.096 123.318 19.096C122.806 19.096 122.346 18.992 121.938 18.784C121.53 18.568 121.206 18.248 120.966 17.824C120.734 17.4 120.618 16.884 120.618 16.276V12.424H121.698V16.132C121.698 16.78 121.862 17.28 122.19 17.632C122.518 17.976 122.966 18.148 123.534 18.148C124.118 18.148 124.578 17.968 124.914 17.608C125.25 17.248 125.418 16.724 125.418 16.036V12.424H126.51ZM127.946 15.688C127.946 15.016 128.082 14.428 128.354 13.924C128.626 13.412 128.998 13.016 129.47 12.736C129.95 12.456 130.482 12.316 131.066 12.316C131.642 12.316 132.142 12.44 132.566 12.688C132.99 12.936 133.306 13.248 133.514 13.624V12.424H134.618V19H133.514V17.776C133.298 18.16 132.974 18.48 132.542 18.736C132.118 18.984 131.622 19.108 131.054 19.108C130.47 19.108 129.942 18.964 129.47 18.676C128.998 18.388 128.626 17.984 128.354 17.464C128.082 16.944 127.946 16.352 127.946 15.688ZM133.514 15.7C133.514 15.204 133.414 14.772 133.214 14.404C133.014 14.036 132.742 13.756 132.398 13.564C132.062 13.364 131.69 13.264 131.282 13.264C130.874 13.264 130.502 13.36 130.166 13.552C129.83 13.744 129.562 14.024 129.362 14.392C129.162 14.76 129.062 15.192 129.062 15.688C129.062 16.192 129.162 16.632 129.362 17.008C129.562 17.376 129.83 17.66 130.166 17.86C130.502 18.052 130.874 18.148 131.282 18.148C131.69 18.148 132.062 18.052 132.398 17.86C132.742 17.66 133.014 17.376 133.214 17.008C133.414 16.632 133.514 16.196 133.514 15.7ZM137.555 13.492C137.747 13.116 138.019 12.824 138.371 12.616C138.731 12.408 139.167 12.304 139.679 12.304V13.432H139.391C138.167 13.432 137.555 14.096 137.555 15.424V19H136.463V12.424H137.555V13.492ZM140.532 15.688C140.532 15.016 140.668 14.428 140.94 13.924C141.212 13.412 141.584 13.016 142.056 12.736C142.536 12.456 143.068 12.316 143.652 12.316C144.228 12.316 144.728 12.44 145.152 12.688C145.576 12.936 145.892 13.248 146.1 13.624V12.424H147.204V19H146.1V17.776C145.884 18.16 145.56 18.48 145.128 18.736C144.704 18.984 144.208 19.108 143.64 19.108C143.056 19.108 142.528 18.964 142.056 18.676C141.584 18.388 141.212 17.984 140.94 17.464C140.668 16.944 140.532 16.352 140.532 15.688ZM146.1 15.7C146.1 15.204 146 14.772 145.8 14.404C145.6 14.036 145.328 13.756 144.984 13.564C144.648 13.364 144.276 13.264 143.868 13.264C143.46 13.264 143.088 13.36 142.752 13.552C142.416 13.744 142.148 14.024 141.948 14.392C141.748 14.76 141.648 15.192 141.648 15.688C141.648 16.192 141.748 16.632 141.948 17.008C142.148 17.376 142.416 17.66 142.752 17.86C143.088 18.052 143.46 18.148 143.868 18.148C144.276 18.148 144.648 18.052 144.984 17.86C145.328 17.66 145.6 17.376 145.8 17.008C146 16.632 146.1 16.196 146.1 15.7ZM152.253 12.304C153.053 12.304 153.701 12.548 154.197 13.036C154.693 13.516 154.941 14.212 154.941 15.124V19H153.861V15.28C153.861 14.624 153.697 14.124 153.369 13.78C153.041 13.428 152.593 13.252 152.025 13.252C151.449 13.252 150.989 13.432 150.645 13.792C150.309 14.152 150.141 14.676 150.141 15.364V19H149.049V12.424H150.141V13.36C150.357 13.024 150.649 12.764 151.017 12.58C151.393 12.396 151.805 12.304 152.253 12.304ZM158.057 13.324V17.2C158.057 17.52 158.125 17.748 158.261 17.884C158.397 18.012 158.633 18.076 158.969 18.076H159.773V19H158.789C158.181 19 157.725 18.86 157.421 18.58C157.117 18.3 156.965 17.84 156.965 17.2V13.324H156.113V12.424H156.965V10.768H158.057V12.424H159.773V13.324H158.057ZM167.096 15.46C167.096 15.668 167.084 15.888 167.06 16.12H161.804C161.844 16.768 162.064 17.276 162.464 17.644C162.872 18.004 163.364 18.184 163.94 18.184C164.412 18.184 164.804 18.076 165.116 17.86C165.436 17.636 165.66 17.34 165.788 16.972H166.964C166.788 17.604 166.436 18.12 165.908 18.52C165.38 18.912 164.724 19.108 163.94 19.108C163.316 19.108 162.756 18.968 162.26 18.688C161.772 18.408 161.388 18.012 161.108 17.5C160.828 16.98 160.688 16.38 160.688 15.7C160.688 15.02 160.824 14.424 161.096 13.912C161.368 13.4 161.748 13.008 162.236 12.736C162.732 12.456 163.3 12.316 163.94 12.316C164.564 12.316 165.116 12.452 165.596 12.724C166.076 12.996 166.444 13.372 166.7 13.852C166.964 14.324 167.096 14.86 167.096 15.46ZM165.968 15.232C165.968 14.816 165.876 14.46 165.692 14.164C165.508 13.86 165.256 13.632 164.936 13.48C164.624 13.32 164.276 13.24 163.892 13.24C163.34 13.24 162.868 13.416 162.476 13.768C162.092 14.12 161.872 14.608 161.816 15.232H165.968ZM174.537 15.46C174.537 15.668 174.525 15.888 174.501 16.12H169.245C169.285 16.768 169.505 17.276 169.905 17.644C170.313 18.004 170.805 18.184 171.381 18.184C171.853 18.184 172.245 18.076 172.557 17.86C172.877 17.636 173.101 17.34 173.229 16.972H174.405C174.229 17.604 173.877 18.12 173.349 18.52C172.821 18.912 172.165 19.108 171.381 19.108C170.757 19.108 170.197 18.968 169.701 18.688C169.213 18.408 168.829 18.012 168.549 17.5C168.269 16.98 168.129 16.38 168.129 15.7C168.129 15.02 168.265 14.424 168.537 13.912C168.809 13.4 169.189 13.008 169.677 12.736C170.173 12.456 170.741 12.316 171.381 12.316C172.005 12.316 172.557 12.452 173.037 12.724C173.517 12.996 173.885 13.372 174.141 13.852C174.405 14.324 174.537 14.86 174.537 15.46ZM173.409 15.232C173.409 14.816 173.317 14.46 173.133 14.164C172.949 13.86 172.697 13.632 172.377 13.48C172.065 13.32 171.717 13.24 171.333 13.24C170.781 13.24 170.309 13.416 169.917 13.768C169.533 14.12 169.313 14.608 169.257 15.232H173.409ZM181.854 13.324H180.474V19H179.382V13.324H178.53V12.424H179.382V11.956C179.382 11.22 179.57 10.684 179.946 10.348C180.33 10.004 180.942 9.832 181.782 9.832V10.744C181.302 10.744 180.962 10.84 180.762 11.032C180.57 11.216 180.474 11.524 180.474 11.956V12.424H181.854V13.324ZM185.995 19.108C185.379 19.108 184.819 18.968 184.315 18.688C183.819 18.408 183.427 18.012 183.139 17.5C182.859 16.98 182.719 16.38 182.719 15.7C182.719 15.028 182.863 14.436 183.151 13.924C183.447 13.404 183.847 13.008 184.351 12.736C184.855 12.456 185.419 12.316 186.043 12.316C186.667 12.316 187.231 12.456 187.735 12.736C188.239 13.008 188.635 13.4 188.923 13.912C189.219 14.424 189.367 15.02 189.367 15.7C189.367 16.38 189.215 16.98 188.911 17.5C188.615 18.012 188.211 18.408 187.699 18.688C187.187 18.968 186.619 19.108 185.995 19.108ZM185.995 18.148C186.387 18.148 186.755 18.056 187.099 17.872C187.443 17.688 187.719 17.412 187.927 17.044C188.143 16.676 188.251 16.228 188.251 15.7C188.251 15.172 188.147 14.724 187.939 14.356C187.731 13.988 187.459 13.716 187.123 13.54C186.787 13.356 186.423 13.264 186.031 13.264C185.631 13.264 185.263 13.356 184.927 13.54C184.599 13.716 184.335 13.988 184.135 14.356C183.935 14.724 183.835 15.172 183.835 15.7C183.835 16.236 183.931 16.688 184.123 17.056C184.323 17.424 184.587 17.7 184.915 17.884C185.243 18.06 185.603 18.148 185.995 18.148ZM191.895 13.492C192.087 13.116 192.359 12.824 192.711 12.616C193.071 12.408 193.507 12.304 194.019 12.304V13.432H193.731C192.507 13.432 191.895 14.096 191.895 15.424V19H190.803V12.424H191.895V13.492ZM199.571 13.636C199.787 13.26 200.107 12.948 200.531 12.7C200.963 12.444 201.463 12.316 202.031 12.316C202.615 12.316 203.143 12.456 203.615 12.736C204.095 13.016 204.471 13.412 204.743 13.924C205.015 14.428 205.151 15.016 205.151 15.688C205.151 16.352 205.015 16.944 204.743 17.464C204.471 17.984 204.095 18.388 203.615 18.676C203.143 18.964 202.615 19.108 202.031 19.108C201.471 19.108 200.975 18.984 200.543 18.736C200.119 18.48 199.795 18.164 199.571 17.788V22.12H198.479V12.424H199.571V13.636ZM204.035 15.688C204.035 15.192 203.935 14.76 203.735 14.392C203.535 14.024 203.263 13.744 202.919 13.552C202.583 13.36 202.211 13.264 201.803 13.264C201.403 13.264 201.031 13.364 200.687 13.564C200.351 13.756 200.079 14.04 199.871 14.416C199.671 14.784 199.571 15.212 199.571 15.7C199.571 16.196 199.671 16.632 199.871 17.008C200.079 17.376 200.351 17.66 200.687 17.86C201.031 18.052 201.403 18.148 201.803 18.148C202.211 18.148 202.583 18.052 202.919 17.86C203.263 17.66 203.535 17.376 203.735 17.008C203.935 16.632 204.035 16.192 204.035 15.688ZM212.588 15.46C212.588 15.668 212.576 15.888 212.552 16.12H207.296C207.336 16.768 207.556 17.276 207.956 17.644C208.364 18.004 208.856 18.184 209.432 18.184C209.904 18.184 210.296 18.076 210.608 17.86C210.928 17.636 211.152 17.34 211.28 16.972H212.456C212.28 17.604 211.928 18.12 211.4 18.52C210.872 18.912 210.216 19.108 209.432 19.108C208.808 19.108 208.248 18.968 207.752 18.688C207.264 18.408 206.88 18.012 206.6 17.5C206.32 16.98 206.18 16.38 206.18 15.7C206.18 15.02 206.316 14.424 206.588 13.912C206.86 13.4 207.24 13.008 207.728 12.736C208.224 12.456 208.792 12.316 209.432 12.316C210.056 12.316 210.608 12.452 211.088 12.724C211.568 12.996 211.936 13.372 212.192 13.852C212.456 14.324 212.588 14.86 212.588 15.46ZM211.46 15.232C211.46 14.816 211.368 14.46 211.184 14.164C211 13.86 210.748 13.632 210.428 13.48C210.116 13.32 209.768 13.24 209.384 13.24C208.832 13.24 208.36 13.416 207.968 13.768C207.584 14.12 207.364 14.608 207.308 15.232H211.46ZM215.361 13.324V17.2C215.361 17.52 215.429 17.748 215.565 17.884C215.701 18.012 215.937 18.076 216.273 18.076H217.077V19H216.093C215.485 19 215.029 18.86 214.725 18.58C214.421 18.3 214.269 17.84 214.269 17.2V13.324H213.417V12.424H214.269V10.768H215.361V12.424H217.077V13.324H215.361ZM220.729 19.108C220.225 19.108 219.773 19.024 219.373 18.856C218.973 18.68 218.657 18.44 218.425 18.136C218.193 17.824 218.065 17.468 218.041 17.068H219.169C219.201 17.396 219.353 17.664 219.625 17.872C219.905 18.08 220.269 18.184 220.717 18.184C221.133 18.184 221.461 18.092 221.701 17.908C221.941 17.724 222.061 17.492 222.061 17.212C222.061 16.924 221.933 16.712 221.677 16.576C221.421 16.432 221.025 16.292 220.489 16.156C220.001 16.028 219.601 15.9 219.289 15.772C218.985 15.636 218.721 15.44 218.497 15.184C218.281 14.92 218.173 14.576 218.173 14.152C218.173 13.816 218.273 13.508 218.473 13.228C218.673 12.948 218.957 12.728 219.325 12.568C219.693 12.4 220.113 12.316 220.585 12.316C221.313 12.316 221.901 12.5 222.349 12.868C222.797 13.236 223.037 13.74 223.069 14.38H221.977C221.953 14.036 221.813 13.76 221.557 13.552C221.309 13.344 220.973 13.24 220.549 13.24C220.157 13.24 219.845 13.324 219.613 13.492C219.381 13.66 219.265 13.88 219.265 14.152C219.265 14.368 219.333 14.548 219.469 14.692C219.613 14.828 219.789 14.94 219.997 15.028C220.213 15.108 220.509 15.2 220.885 15.304C221.357 15.432 221.741 15.56 222.037 15.688C222.333 15.808 222.585 15.992 222.793 16.24C223.009 16.488 223.121 16.812 223.129 17.212C223.129 17.572 223.029 17.896 222.829 18.184C222.629 18.472 222.345 18.7 221.977 18.868C221.617 19.028 221.201 19.108 220.729 19.108Z" fill="#002A48"/>
<defs>
<clipPath id="clip0_12_1454">
<rect width="24" height="24" fill="white" transform="translate(3 3)"/>
</clipPath>
</defs>
</svg>
