<svg width="269" height="30" viewBox="0 0 269 30" fill="none" xmlns="http://www.w3.org/2000/svg">
<g clip-path="url(#clip0_12_1467)">
<path d="M14.2387 9.23168L16.6665 8.87498C17.6106 8.73629 18.3322 7.96141 18.4034 7.00988L18.6653 3.51121C18.6934 3.13585 18.2945 2.87856 17.9641 3.05891L15.746 4.26985C14.9879 4.68371 14.4553 5.41556 14.2947 6.26416L13.8163 8.79135C13.7684 9.04437 13.984 9.26912 14.2387 9.23168Z" fill="#FFE07D"/>
<path d="M17.9642 3.05891L16.9089 3.63498L16.6597 6.96532C16.5884 7.91686 15.8668 8.69168 14.9228 8.83043L13.8333 8.99053C13.8919 9.14878 14.0549 9.25868 14.2388 9.23163L16.6666 8.87488C17.6107 8.73619 18.3323 7.96131 18.4035 7.00977L18.6654 3.51111C18.6934 3.13585 18.2946 2.87856 17.9642 3.05891Z" fill="#FFD064"/>
<path d="M9.86684 18.9549L11.4653 18.6186C11.8148 18.6588 12.043 19.0055 11.9416 19.3424L11.5128 20.7674L15.5037 26.3514H18.1574L28.1904 24.3855L22.5049 12.9789C21.6578 11.2794 20.6577 9.66062 19.5169 8.14261C17.778 5.53421 14.2567 4.82403 11.6427 6.55451L9.94921 7.67559C9.24636 8.14087 8.78673 8.89455 8.69476 9.73244L8.54252 11.1199C8.48815 11.6157 8.14801 12.0336 7.67356 12.1875L4.6117 13.1807L3.98511 15.6554L4.1672 16.0342C4.71991 17.1842 5.82406 17.9702 7.09169 18.1159L8.15371 18.238C8.1998 18.2433 8.24225 18.2675 8.26814 18.3059C8.61761 18.8257 9.24937 19.0848 9.86684 18.9549Z" fill="#FFD064"/>
<path d="M22.5048 12.9789C21.6578 11.2794 20.6576 9.66062 19.5169 8.14261C18.0291 5.91094 15.2367 5.06904 12.824 5.95614C13.9206 6.35676 14.9042 7.09699 15.6013 8.14261C16.7421 9.66062 17.7422 11.2794 18.5893 12.9789L25.0087 25.8577L28.1904 24.3855L22.5048 12.9789Z" fill="#FFC250"/>
<path d="M22.6742 16.383L22.7186 15.7946C22.7858 14.905 22.4194 14.0378 21.7347 13.466L19.716 11.7802C19.4747 11.5787 19.1131 11.7868 19.1661 12.0967L19.6361 14.8414C19.6756 15.072 19.8116 15.2749 20.0099 15.3991L22.0691 16.6888C22.3215 16.847 22.6517 16.6801 22.6742 16.383Z" fill="#4A80AA"/>
<path d="M21.7347 13.466L19.716 11.7803C19.4747 11.5788 19.1131 11.7869 19.1661 12.0968L19.312 12.9486L20.0991 13.6059C20.7838 14.1777 21.1503 15.0449 21.083 15.9345L21.0732 16.0651L22.069 16.6888C22.3215 16.847 22.6517 16.6801 22.6742 16.383L22.7186 15.7946C22.7858 14.905 22.4194 14.0378 21.7347 13.466Z" fill="#407093"/>
<path d="M16.3879 20.6197C16.6837 20.9167 17.0466 21.1382 17.4459 21.2656C17.5011 21.2832 17.5453 21.3249 17.566 21.3791L17.7367 21.8268C17.8549 22.1368 18.1721 22.3358 18.4995 22.2818C18.516 22.2791 18.5325 22.2758 18.549 22.2719L19.4505 22.0621C19.8143 21.9774 20.0852 22.3935 19.8606 22.6919L18.9297 23.9284C18.4013 24.6303 18.1335 25.4858 18.1572 26.3513H29.1626C29.346 26.3513 29.4772 26.1728 29.4208 25.9983C29.3059 25.6426 29.2195 25.278 29.1632 24.9077L28.671 21.67C28.4794 20.4099 27.9459 19.2265 27.1287 18.2484L24.9996 15.7002C24.2931 14.8547 23.3172 14.2779 22.2358 14.0667L22.1225 14.0446C20.7087 13.7685 19.2456 14.1419 18.1371 15.0618L17.6597 15.4579C16.9695 16.0307 16.6572 16.9411 16.8506 17.8169L17.0082 18.5308L16.0896 19.5422L16.125 20.3557L16.3879 20.6197Z" fill="#407093"/>
<path d="M10.712 13.1504C11.0976 13.1504 11.4103 12.8378 11.4103 12.4521C11.4103 12.0664 11.0976 11.7538 10.712 11.7538C10.3263 11.7538 10.0137 12.0664 10.0137 12.4521C10.0137 12.8378 10.3263 13.1504 10.712 13.1504Z" fill="#707DD3"/>
<path d="M3.69688 15.0555L3.98513 15.6553L4.13663 15.2521C4.23451 14.9916 4.48768 14.8226 4.76575 14.8322L5.48141 14.8569C5.76797 14.8668 5.92027 14.5223 5.72003 14.317L4.61166 13.1807L4.48162 13.2229C3.71913 13.4702 3.34962 14.333 3.69688 15.0555Z" fill="#407093"/>
<path d="M5.72002 14.317L4.61165 13.1807L4.4816 13.2229C4.22711 13.3054 4.0167 13.4568 3.86182 13.6484L4.78778 14.5977C4.85681 14.6685 4.89119 14.7525 4.89879 14.8368L5.48139 14.8569C5.76795 14.8668 5.92025 14.5222 5.72002 14.317Z" fill="#365E7D"/>
<path d="M7.7724 15.9745C8.02531 15.9745 8.23034 15.7695 8.23034 15.5165C8.23034 15.2636 8.02531 15.0586 7.7724 15.0586C7.51948 15.0586 7.31445 15.2636 7.31445 15.5165C7.31445 15.7695 7.51948 15.9745 7.7724 15.9745Z" fill="#FFC250"/>
<path d="M9.54242 15.9745C9.79533 15.9745 10.0004 15.7695 10.0004 15.5165C10.0004 15.2636 9.79533 15.0586 9.54242 15.0586C9.2895 15.0586 9.08447 15.2636 9.08447 15.5165C9.08447 15.7695 9.2895 15.9745 9.54242 15.9745Z" fill="#FFC250"/>
<path d="M8.79803 17.2459C9.05095 17.2459 9.25598 17.0409 9.25598 16.788C9.25598 16.535 9.05095 16.33 8.79803 16.33C8.54512 16.33 8.34009 16.535 8.34009 16.788C8.34009 17.0409 8.54512 17.2459 8.79803 17.2459Z" fill="#FFC250"/>
<path d="M19.0098 19.1798C19.3683 19.1798 19.6588 18.8893 19.6588 18.5308C19.6588 18.1724 19.3683 17.8818 19.0098 17.8818C18.6514 17.8818 18.3608 18.1724 18.3608 18.5308C18.3608 18.8893 18.6514 19.1798 19.0098 19.1798Z" fill="#95D6A4"/>
<path d="M16.6433 19.5012L16.0897 19.5423L16.033 19.6047C15.8762 19.7773 15.8607 20.0359 15.9958 20.226L16.1251 20.3558L16.7035 20.3129C16.9276 20.2962 17.0959 20.1011 17.0793 19.8769C17.0627 19.6529 16.8678 19.4852 16.6433 19.5012Z" fill="#E28086"/>
<path d="M16.2494 9.65151L17.3001 9.70282L19.0543 9.47479C19.0543 9.47479 19.8545 9.56882 20.2516 9.16651C20.4899 8.92514 20.6701 8.62229 20.7653 8.27741L21.6991 4.89555C21.7993 4.53274 21.4578 4.20315 21.0988 4.31616L18.6882 5.07506C17.8644 5.33441 17.2002 5.94945 16.8784 6.7509L15.9201 9.13782C15.8242 9.37671 15.9923 9.63896 16.2494 9.65151Z" fill="#FFE07D"/>
<path d="M21.0987 4.31617L19.6848 4.7613C19.6853 4.80502 19.6797 4.85 19.6671 4.89557L18.7333 8.27742C18.5373 8.98723 17.9815 9.51853 17.3 9.70283L18.7004 9.77123C19.6534 9.81779 20.5113 9.19716 20.7652 8.27742L21.699 4.89557C21.7992 4.53275 21.4577 4.20311 21.0987 4.31617Z" fill="#FFD064"/>
<path d="M19.7797 14.9067L19.893 14.9288C20.9744 15.14 21.9503 15.7168 22.6568 16.5623L24.786 19.1105C25.6033 20.0886 26.1367 21.2721 26.3283 22.5322L26.8206 25.7699C26.8503 25.9655 26.8892 26.1594 26.9354 26.3515H29.1628C29.3462 26.3515 29.4774 26.173 29.4211 25.9984C29.3062 25.6427 29.2197 25.2781 29.1634 24.9079L28.6711 21.6702C28.4795 20.4101 27.9461 19.2266 27.1289 18.2485L24.9997 15.7003C24.2932 14.8548 23.3173 14.278 22.2359 14.0668L22.1226 14.0447C20.8304 13.7924 19.4971 14.083 18.4309 14.8372C18.8768 14.7971 19.3307 14.819 19.7797 14.9067Z" fill="#365E7D"/>
<path d="M24.0773 16.2973C24.0773 16.2973 24.6635 15.7126 24.6922 15.3657C24.7351 14.8473 24.6314 14.32 24.3817 13.8474L23.1533 11.5219C23.0065 11.244 22.5929 11.2994 22.5245 11.6062L21.9184 14.3241C21.8674 14.5525 21.9163 14.7917 22.0527 14.9819L23.0496 16.3718L24.0773 16.2973Z" fill="#4A80AA"/>
<path d="M24.3816 13.8475L23.1532 11.522C23.0064 11.244 22.5928 11.2995 22.5244 11.6063L22.3025 12.6013L22.9927 13.9078C23.3984 14.6758 23.4176 15.5882 23.0495 16.3719L23.4687 16.9563C23.6423 17.1984 24.0111 17.1693 24.1446 16.9028L24.4089 16.3753C24.8085 15.5776 24.7983 14.6362 24.3816 13.8475Z" fill="#407093"/>
<path d="M24.8908 30C26.65 30 28.0761 28.5739 28.0761 26.8148C28.0761 25.0556 26.65 23.6295 24.8908 23.6295C23.1317 23.6295 21.7056 25.0556 21.7056 26.8148C21.7056 28.5739 23.1317 30 24.8908 30Z" fill="#B3E59F"/>
<path d="M26.7585 24.2352C27.1392 24.76 27.3643 25.405 27.3643 26.103C27.3643 27.8621 25.9382 29.2882 24.179 29.2882C23.4811 29.2882 22.8361 29.0632 22.3113 28.6825C22.8901 29.4806 23.8296 30 24.8908 30C26.6499 30 28.076 28.5739 28.076 26.8148C28.0761 25.7535 27.5566 24.8141 26.7585 24.2352Z" fill="#95D6A4"/>
<path d="M24.5329 28.0129C24.425 28.0129 24.3215 27.97 24.2451 27.8937L23.4341 27.0827C23.2752 26.9238 23.2752 26.6661 23.4341 26.5072C23.593 26.3483 23.8508 26.3483 24.0096 26.5072L24.5329 27.0305L25.8689 25.6943C26.0278 25.5355 26.2855 25.5355 26.4444 25.6943C26.6034 25.8533 26.6034 26.1109 26.4444 26.2699L24.8206 27.8937C24.7443 27.97 24.6408 28.0129 24.5329 28.0129Z" fill="#F2FBFF"/>
<path d="M15.781 25.4157C15.911 24.9771 15.5823 24.5369 15.1248 24.5369C14.6751 24.5369 14.3476 24.1105 14.4637 23.676L14.5074 23.5121C14.6235 23.0776 14.296 22.6512 13.8462 22.6512H13.7546C13.3173 22.6512 12.9922 22.2466 13.0862 21.8196L13.1348 21.5991C13.2289 21.172 12.9038 20.7675 12.4665 20.7675H11.5128L10.7588 23.2733C10.5387 24.0044 10.427 24.7637 10.427 25.5272V26.0802C10.427 26.23 10.5484 26.3515 10.6983 26.3515H15.5037L15.781 25.4157Z" fill="#F9F6F6"/>
<path d="M22.7033 19.9415L24.0874 20.1321C24.31 20.1626 24.5154 20.0071 24.5461 19.7844C24.5768 19.5618 24.4211 19.3564 24.1984 19.3258L22.8143 19.1352C22.045 19.0292 21.2725 19.1587 20.5784 19.5103L19.7242 19.9473C19.555 20.034 19.451 20.2127 19.4595 20.4028C19.4679 20.5928 19.5873 20.7617 19.7638 20.8331L20.7131 21.2166C21.1247 21.3789 21.4905 21.6453 21.771 21.9872L22.244 22.5637C22.3245 22.6618 22.4412 22.7126 22.5589 22.7126C22.6497 22.7126 22.7411 22.6823 22.8168 22.6202C22.9906 22.4777 23.0159 22.2213 22.8733 22.0475L22.4003 21.471C22.2133 21.2431 21.9974 21.0409 21.7599 20.8692C22.083 20.9409 22.3938 21.0648 22.6792 21.2383L23.8929 21.9757C23.959 22.0159 24.0319 22.0349 24.1039 22.0349C24.2414 22.0349 24.3755 21.9653 24.4521 21.8392C24.5688 21.6471 24.5077 21.3968 24.3156 21.2801L23.1019 20.5427C22.6265 20.2539 22.096 20.0729 21.5471 20.0091C21.9218 19.9116 22.313 19.8878 22.7033 19.9415Z" fill="#4A80AA"/>
</g>
<path d="M39.456 11.32V10.324H41.712V19H40.608V11.32H39.456ZM43.5878 14.572C43.5878 13.196 43.8118 12.124 44.2598 11.356C44.7078 10.58 45.4918 10.192 46.6118 10.192C47.7238 10.192 48.5038 10.58 48.9518 11.356C49.3997 12.124 49.6237 13.196 49.6237 14.572C49.6237 15.972 49.3997 17.06 48.9518 17.836C48.5038 18.612 47.7238 19 46.6118 19C45.4918 19 44.7078 18.612 44.2598 17.836C43.8118 17.06 43.5878 15.972 43.5878 14.572ZM48.5438 14.572C48.5438 13.876 48.4958 13.288 48.3998 12.808C48.3118 12.32 48.1238 11.928 47.8358 11.632C47.5558 11.336 47.1478 11.188 46.6118 11.188C46.0678 11.188 45.6518 11.336 45.3638 11.632C45.0838 11.928 44.8958 12.32 44.7998 12.808C44.7118 13.288 44.6678 13.876 44.6678 14.572C44.6678 15.292 44.7118 15.896 44.7998 16.384C44.8958 16.872 45.0838 17.264 45.3638 17.56C45.6518 17.856 46.0678 18.004 46.6118 18.004C47.1478 18.004 47.5558 17.856 47.8358 17.56C48.1238 17.264 48.3118 16.872 48.3998 16.384C48.4958 15.896 48.5438 15.292 48.5438 14.572ZM51.1229 14.572C51.1229 13.196 51.3469 12.124 51.7949 11.356C52.2429 10.58 53.0269 10.192 54.1469 10.192C55.2589 10.192 56.0389 10.58 56.4869 11.356C56.9349 12.124 57.1589 13.196 57.1589 14.572C57.1589 15.972 56.9349 17.06 56.4869 17.836C56.0389 18.612 55.2589 19 54.1469 19C53.0269 19 52.2429 18.612 51.7949 17.836C51.3469 17.06 51.1229 15.972 51.1229 14.572ZM56.0789 14.572C56.0789 13.876 56.0309 13.288 55.9349 12.808C55.8469 12.32 55.6589 11.928 55.3709 11.632C55.0909 11.336 54.6829 11.188 54.1469 11.188C53.6029 11.188 53.1869 11.336 52.8989 11.632C52.6189 11.928 52.4309 12.32 52.3349 12.808C52.2469 13.288 52.2029 13.876 52.2029 14.572C52.2029 15.292 52.2469 15.896 52.3349 16.384C52.4309 16.872 52.6189 17.264 52.8989 17.56C53.1869 17.856 53.6029 18.004 54.1469 18.004C54.6829 18.004 55.0909 17.856 55.3709 17.56C55.6589 17.264 55.8469 16.872 55.9349 16.384C56.0309 15.896 56.0789 15.292 56.0789 14.572ZM58.4181 12.28C58.4181 11.736 58.5821 11.304 58.9101 10.984C59.2381 10.656 59.6581 10.492 60.1701 10.492C60.6821 10.492 61.1021 10.656 61.4301 10.984C61.7581 11.304 61.9221 11.736 61.9221 12.28C61.9221 12.832 61.7581 13.272 61.4301 13.6C61.1021 13.92 60.6821 14.08 60.1701 14.08C59.6581 14.08 59.2381 13.92 58.9101 13.6C58.5821 13.272 58.4181 12.832 58.4181 12.28ZM65.4261 10.624L60.5661 19H59.4861L64.3461 10.624H65.4261ZM60.1701 11.164C59.8981 11.164 59.6821 11.26 59.5221 11.452C59.3701 11.636 59.2941 11.912 59.2941 12.28C59.2941 12.648 59.3701 12.928 59.5221 13.12C59.6821 13.312 59.8981 13.408 60.1701 13.408C60.4421 13.408 60.6581 13.312 60.8181 13.12C60.9781 12.92 61.0581 12.64 61.0581 12.28C61.0581 11.912 60.9781 11.636 60.8181 11.452C60.6581 11.26 60.4421 11.164 60.1701 11.164ZM63.0141 17.344C63.0141 16.792 63.1781 16.356 63.5061 16.036C63.8341 15.708 64.2541 15.544 64.7661 15.544C65.2781 15.544 65.6941 15.708 66.0141 16.036C66.3421 16.356 66.5061 16.792 66.5061 17.344C66.5061 17.888 66.3421 18.324 66.0141 18.652C65.6941 18.98 65.2781 19.144 64.7661 19.144C64.2541 19.144 63.8341 18.984 63.5061 18.664C63.1781 18.336 63.0141 17.896 63.0141 17.344ZM64.7541 16.228C64.4821 16.228 64.2661 16.324 64.1061 16.516C63.9461 16.7 63.8661 16.976 63.8661 17.344C63.8661 17.704 63.9461 17.98 64.1061 18.172C64.2661 18.356 64.4821 18.448 64.7541 18.448C65.0261 18.448 65.2421 18.356 65.4021 18.172C65.5621 17.98 65.6421 17.704 65.6421 17.344C65.6421 16.976 65.5621 16.7 65.4021 16.516C65.2421 16.324 65.0261 16.228 64.7541 16.228ZM73.8548 12.316C74.4228 12.316 74.9188 12.44 75.3428 12.688C75.7748 12.936 76.0948 13.248 76.3028 13.624V12.424H77.4068V19.144C77.4068 19.744 77.2788 20.276 77.0228 20.74C76.7668 21.212 76.3988 21.58 75.9188 21.844C75.4468 22.108 74.8948 22.24 74.2628 22.24C73.3988 22.24 72.6788 22.036 72.1028 21.628C71.5268 21.22 71.1868 20.664 71.0828 19.96H72.1628C72.2828 20.36 72.5308 20.68 72.9068 20.92C73.2828 21.168 73.7348 21.292 74.2628 21.292C74.8628 21.292 75.3508 21.104 75.7268 20.728C76.1108 20.352 76.3028 19.824 76.3028 19.144V17.764C76.0868 18.148 75.7668 18.468 75.3428 18.724C74.9188 18.98 74.4228 19.108 73.8548 19.108C73.2708 19.108 72.7388 18.964 72.2588 18.676C71.7868 18.388 71.4148 17.984 71.1428 17.464C70.8708 16.944 70.7348 16.352 70.7348 15.688C70.7348 15.016 70.8708 14.428 71.1428 13.924C71.4148 13.412 71.7868 13.016 72.2588 12.736C72.7388 12.456 73.2708 12.316 73.8548 12.316ZM76.3028 15.7C76.3028 15.204 76.2028 14.772 76.0028 14.404C75.8028 14.036 75.5308 13.756 75.1868 13.564C74.8508 13.364 74.4788 13.264 74.0708 13.264C73.6628 13.264 73.2908 13.36 72.9548 13.552C72.6188 13.744 72.3508 14.024 72.1508 14.392C71.9508 14.76 71.8508 15.192 71.8508 15.688C71.8508 16.192 71.9508 16.632 72.1508 17.008C72.3508 17.376 72.6188 17.66 72.9548 17.86C73.2908 18.052 73.6628 18.148 74.0708 18.148C74.4788 18.148 74.8508 18.052 75.1868 17.86C75.5308 17.66 75.8028 17.376 76.0028 17.008C76.2028 16.632 76.3028 16.196 76.3028 15.7ZM85.0841 12.424V19H83.9921V18.028C83.7841 18.364 83.4921 18.628 83.1161 18.82C82.7481 19.004 82.3401 19.096 81.8921 19.096C81.3801 19.096 80.9201 18.992 80.5121 18.784C80.1041 18.568 79.7801 18.248 79.5401 17.824C79.3081 17.4 79.1921 16.884 79.1921 16.276V12.424H80.2721V16.132C80.2721 16.78 80.4361 17.28 80.7641 17.632C81.0921 17.976 81.5401 18.148 82.1081 18.148C82.6921 18.148 83.1521 17.968 83.4881 17.608C83.8241 17.248 83.9921 16.724 83.9921 16.036V12.424H85.0841ZM86.5199 15.688C86.5199 15.016 86.6559 14.428 86.9279 13.924C87.1999 13.412 87.5719 13.016 88.0439 12.736C88.5239 12.456 89.0559 12.316 89.6399 12.316C90.2159 12.316 90.7159 12.44 91.1399 12.688C91.5639 12.936 91.8799 13.248 92.0879 13.624V12.424H93.1919V19H92.0879V17.776C91.8719 18.16 91.5479 18.48 91.1159 18.736C90.6919 18.984 90.1959 19.108 89.6279 19.108C89.0439 19.108 88.5159 18.964 88.0439 18.676C87.5719 18.388 87.1999 17.984 86.9279 17.464C86.6559 16.944 86.5199 16.352 86.5199 15.688ZM92.0879 15.7C92.0879 15.204 91.9879 14.772 91.7879 14.404C91.5879 14.036 91.3159 13.756 90.9719 13.564C90.6359 13.364 90.2639 13.264 89.8559 13.264C89.4479 13.264 89.0759 13.36 88.7399 13.552C88.4039 13.744 88.1359 14.024 87.9359 14.392C87.7359 14.76 87.6359 15.192 87.6359 15.688C87.6359 16.192 87.7359 16.632 87.9359 17.008C88.1359 17.376 88.4039 17.66 88.7399 17.86C89.0759 18.052 89.4479 18.148 89.8559 18.148C90.2639 18.148 90.6359 18.052 90.9719 17.86C91.3159 17.66 91.5879 17.376 91.7879 17.008C91.9879 16.632 92.0879 16.196 92.0879 15.7ZM96.1293 13.492C96.3213 13.116 96.5933 12.824 96.9453 12.616C97.3053 12.408 97.7413 12.304 98.2533 12.304V13.432H97.9653C96.7413 13.432 96.1293 14.096 96.1293 15.424V19H95.0373V12.424H96.1293V13.492ZM99.1058 15.688C99.1058 15.016 99.2418 14.428 99.5138 13.924C99.7858 13.412 100.158 13.016 100.63 12.736C101.11 12.456 101.642 12.316 102.226 12.316C102.802 12.316 103.302 12.44 103.726 12.688C104.15 12.936 104.466 13.248 104.674 13.624V12.424H105.778V19H104.674V17.776C104.458 18.16 104.134 18.48 103.702 18.736C103.278 18.984 102.782 19.108 102.214 19.108C101.63 19.108 101.102 18.964 100.63 18.676C100.158 18.388 99.7858 17.984 99.5138 17.464C99.2418 16.944 99.1058 16.352 99.1058 15.688ZM104.674 15.7C104.674 15.204 104.574 14.772 104.374 14.404C104.174 14.036 103.902 13.756 103.558 13.564C103.222 13.364 102.85 13.264 102.442 13.264C102.034 13.264 101.662 13.36 101.326 13.552C100.99 13.744 100.722 14.024 100.522 14.392C100.322 14.76 100.222 15.192 100.222 15.688C100.222 16.192 100.322 16.632 100.522 17.008C100.722 17.376 100.99 17.66 101.326 17.86C101.662 18.052 102.034 18.148 102.442 18.148C102.85 18.148 103.222 18.052 103.558 17.86C103.902 17.66 104.174 17.376 104.374 17.008C104.574 16.632 104.674 16.196 104.674 15.7ZM110.827 12.304C111.627 12.304 112.275 12.548 112.771 13.036C113.267 13.516 113.515 14.212 113.515 15.124V19H112.435V15.28C112.435 14.624 112.271 14.124 111.943 13.78C111.615 13.428 111.167 13.252 110.599 13.252C110.023 13.252 109.563 13.432 109.219 13.792C108.883 14.152 108.715 14.676 108.715 15.364V19H107.623V12.424H108.715V13.36C108.931 13.024 109.223 12.764 109.591 12.58C109.967 12.396 110.379 12.304 110.827 12.304ZM116.631 13.324V17.2C116.631 17.52 116.699 17.748 116.835 17.884C116.971 18.012 117.207 18.076 117.543 18.076H118.347V19H117.363C116.755 19 116.299 18.86 115.995 18.58C115.691 18.3 115.539 17.84 115.539 17.2V13.324H114.687V12.424H115.539V10.768H116.631V12.424H118.347V13.324H116.631ZM125.67 15.46C125.67 15.668 125.658 15.888 125.634 16.12H120.378C120.418 16.768 120.638 17.276 121.038 17.644C121.446 18.004 121.938 18.184 122.514 18.184C122.986 18.184 123.378 18.076 123.69 17.86C124.01 17.636 124.234 17.34 124.362 16.972H125.538C125.362 17.604 125.01 18.12 124.482 18.52C123.954 18.912 123.298 19.108 122.514 19.108C121.89 19.108 121.33 18.968 120.834 18.688C120.346 18.408 119.962 18.012 119.682 17.5C119.402 16.98 119.262 16.38 119.262 15.7C119.262 15.02 119.398 14.424 119.67 13.912C119.942 13.4 120.322 13.008 120.81 12.736C121.306 12.456 121.874 12.316 122.514 12.316C123.138 12.316 123.69 12.452 124.17 12.724C124.65 12.996 125.018 13.372 125.274 13.852C125.538 14.324 125.67 14.86 125.67 15.46ZM124.542 15.232C124.542 14.816 124.45 14.46 124.266 14.164C124.082 13.86 123.83 13.632 123.51 13.48C123.198 13.32 122.85 13.24 122.466 13.24C121.914 13.24 121.442 13.416 121.05 13.768C120.666 14.12 120.446 14.608 120.39 15.232H124.542ZM133.112 15.46C133.112 15.668 133.1 15.888 133.076 16.12H127.82C127.86 16.768 128.08 17.276 128.48 17.644C128.888 18.004 129.38 18.184 129.956 18.184C130.428 18.184 130.82 18.076 131.132 17.86C131.452 17.636 131.676 17.34 131.804 16.972H132.98C132.804 17.604 132.452 18.12 131.924 18.52C131.396 18.912 130.74 19.108 129.956 19.108C129.332 19.108 128.772 18.968 128.276 18.688C127.788 18.408 127.404 18.012 127.124 17.5C126.844 16.98 126.704 16.38 126.704 15.7C126.704 15.02 126.84 14.424 127.112 13.912C127.384 13.4 127.764 13.008 128.252 12.736C128.748 12.456 129.316 12.316 129.956 12.316C130.58 12.316 131.132 12.452 131.612 12.724C132.092 12.996 132.46 13.372 132.716 13.852C132.98 14.324 133.112 14.86 133.112 15.46ZM131.984 15.232C131.984 14.816 131.892 14.46 131.708 14.164C131.524 13.86 131.272 13.632 130.952 13.48C130.64 13.32 130.292 13.24 129.908 13.24C129.356 13.24 128.884 13.416 128.492 13.768C128.108 14.12 127.888 14.608 127.832 15.232H131.984ZM140.62 19.108C140.004 19.108 139.444 18.968 138.94 18.688C138.444 18.408 138.052 18.012 137.764 17.5C137.484 16.98 137.344 16.38 137.344 15.7C137.344 15.028 137.488 14.436 137.776 13.924C138.072 13.404 138.472 13.008 138.976 12.736C139.48 12.456 140.044 12.316 140.668 12.316C141.292 12.316 141.856 12.456 142.36 12.736C142.864 13.008 143.26 13.4 143.548 13.912C143.844 14.424 143.992 15.02 143.992 15.7C143.992 16.38 143.84 16.98 143.536 17.5C143.24 18.012 142.836 18.408 142.324 18.688C141.812 18.968 141.244 19.108 140.62 19.108ZM140.62 18.148C141.012 18.148 141.38 18.056 141.724 17.872C142.068 17.688 142.344 17.412 142.552 17.044C142.768 16.676 142.876 16.228 142.876 15.7C142.876 15.172 142.772 14.724 142.564 14.356C142.356 13.988 142.084 13.716 141.748 13.54C141.412 13.356 141.048 13.264 140.656 13.264C140.256 13.264 139.888 13.356 139.552 13.54C139.224 13.716 138.96 13.988 138.76 14.356C138.56 14.724 138.46 15.172 138.46 15.7C138.46 16.236 138.556 16.688 138.748 17.056C138.948 17.424 139.212 17.7 139.54 17.884C139.868 18.06 140.228 18.148 140.62 18.148ZM148.104 13.324H146.724V19H145.632V13.324H144.78V12.424H145.632V11.956C145.632 11.22 145.82 10.684 146.196 10.348C146.58 10.004 147.192 9.832 148.032 9.832V10.744C147.552 10.744 147.212 10.84 147.012 11.032C146.82 11.216 146.724 11.524 146.724 11.956V12.424H148.104V13.324ZM153.668 13.636C153.884 13.26 154.204 12.948 154.628 12.7C155.06 12.444 155.56 12.316 156.128 12.316C156.712 12.316 157.24 12.456 157.712 12.736C158.192 13.016 158.568 13.412 158.84 13.924C159.112 14.428 159.248 15.016 159.248 15.688C159.248 16.352 159.112 16.944 158.84 17.464C158.568 17.984 158.192 18.388 157.712 18.676C157.24 18.964 156.712 19.108 156.128 19.108C155.568 19.108 155.072 18.984 154.64 18.736C154.216 18.48 153.892 18.164 153.668 17.788V22.12H152.576V12.424H153.668V13.636ZM158.132 15.688C158.132 15.192 158.032 14.76 157.832 14.392C157.632 14.024 157.36 13.744 157.016 13.552C156.68 13.36 156.308 13.264 155.9 13.264C155.5 13.264 155.128 13.364 154.784 13.564C154.448 13.756 154.176 14.04 153.968 14.416C153.768 14.784 153.668 15.212 153.668 15.7C153.668 16.196 153.768 16.632 153.968 17.008C154.176 17.376 154.448 17.66 154.784 17.86C155.128 18.052 155.5 18.148 155.9 18.148C156.308 18.148 156.68 18.052 157.016 17.86C157.36 17.66 157.632 17.376 157.832 17.008C158.032 16.632 158.132 16.192 158.132 15.688ZM166.686 15.46C166.686 15.668 166.674 15.888 166.65 16.12H161.394C161.434 16.768 161.654 17.276 162.054 17.644C162.462 18.004 162.954 18.184 163.53 18.184C164.002 18.184 164.394 18.076 164.706 17.86C165.026 17.636 165.25 17.34 165.378 16.972H166.554C166.378 17.604 166.026 18.12 165.498 18.52C164.97 18.912 164.314 19.108 163.53 19.108C162.906 19.108 162.346 18.968 161.85 18.688C161.362 18.408 160.978 18.012 160.698 17.5C160.418 16.98 160.278 16.38 160.278 15.7C160.278 15.02 160.414 14.424 160.686 13.912C160.958 13.4 161.338 13.008 161.826 12.736C162.322 12.456 162.89 12.316 163.53 12.316C164.154 12.316 164.706 12.452 165.186 12.724C165.666 12.996 166.034 13.372 166.29 13.852C166.554 14.324 166.686 14.86 166.686 15.46ZM165.558 15.232C165.558 14.816 165.466 14.46 165.282 14.164C165.098 13.86 164.846 13.632 164.526 13.48C164.214 13.32 163.866 13.24 163.482 13.24C162.93 13.24 162.458 13.416 162.066 13.768C161.682 14.12 161.462 14.608 161.406 15.232H165.558ZM169.459 13.324V17.2C169.459 17.52 169.527 17.748 169.663 17.884C169.799 18.012 170.035 18.076 170.371 18.076H171.175V19H170.191C169.583 19 169.127 18.86 168.823 18.58C168.519 18.3 168.367 17.84 168.367 17.2V13.324H167.515V12.424H168.367V10.768H169.459V12.424H171.175V13.324H169.459ZM176.261 11.356C176.053 11.356 175.877 11.284 175.733 11.14C175.589 10.996 175.517 10.82 175.517 10.612C175.517 10.404 175.589 10.228 175.733 10.084C175.877 9.94 176.053 9.868 176.261 9.868C176.461 9.868 176.629 9.94 176.765 10.084C176.909 10.228 176.981 10.404 176.981 10.612C176.981 10.82 176.909 10.996 176.765 11.14C176.629 11.284 176.461 11.356 176.261 11.356ZM176.789 12.424V19H175.697V12.424H176.789ZM178.243 15.688C178.243 15.016 178.379 14.428 178.651 13.924C178.923 13.412 179.295 13.016 179.767 12.736C180.247 12.456 180.783 12.316 181.375 12.316C181.887 12.316 182.363 12.436 182.803 12.676C183.243 12.908 183.579 13.216 183.811 13.6V10.12H184.915V19H183.811V17.764C183.595 18.156 183.275 18.48 182.851 18.736C182.427 18.984 181.931 19.108 181.363 19.108C180.779 19.108 180.247 18.964 179.767 18.676C179.295 18.388 178.923 17.984 178.651 17.464C178.379 16.944 178.243 16.352 178.243 15.688ZM183.811 15.7C183.811 15.204 183.711 14.772 183.511 14.404C183.311 14.036 183.039 13.756 182.695 13.564C182.359 13.364 181.987 13.264 181.579 13.264C181.171 13.264 180.799 13.36 180.463 13.552C180.127 13.744 179.859 14.024 179.659 14.392C179.459 14.76 179.359 15.192 179.359 15.688C179.359 16.192 179.459 16.632 179.659 17.008C179.859 17.376 180.127 17.66 180.463 17.86C180.799 18.052 181.171 18.148 181.579 18.148C181.987 18.148 182.359 18.052 182.695 17.86C183.039 17.66 183.311 17.376 183.511 17.008C183.711 16.632 183.811 16.196 183.811 15.7ZM192.76 15.46C192.76 15.668 192.748 15.888 192.724 16.12H187.468C187.508 16.768 187.728 17.276 188.128 17.644C188.536 18.004 189.028 18.184 189.604 18.184C190.076 18.184 190.468 18.076 190.78 17.86C191.1 17.636 191.324 17.34 191.452 16.972H192.628C192.452 17.604 192.1 18.12 191.572 18.52C191.044 18.912 190.388 19.108 189.604 19.108C188.98 19.108 188.42 18.968 187.924 18.688C187.436 18.408 187.052 18.012 186.772 17.5C186.492 16.98 186.352 16.38 186.352 15.7C186.352 15.02 186.488 14.424 186.76 13.912C187.032 13.4 187.412 13.008 187.9 12.736C188.396 12.456 188.964 12.316 189.604 12.316C190.228 12.316 190.78 12.452 191.26 12.724C191.74 12.996 192.108 13.372 192.364 13.852C192.628 14.324 192.76 14.86 192.76 15.46ZM191.632 15.232C191.632 14.816 191.54 14.46 191.356 14.164C191.172 13.86 190.92 13.632 190.6 13.48C190.288 13.32 189.94 13.24 189.556 13.24C189.004 13.24 188.532 13.416 188.14 13.768C187.756 14.12 187.536 14.608 187.48 15.232H191.632ZM197.405 12.304C198.205 12.304 198.853 12.548 199.349 13.036C199.845 13.516 200.093 14.212 200.093 15.124V19H199.013V15.28C199.013 14.624 198.849 14.124 198.521 13.78C198.193 13.428 197.745 13.252 197.177 13.252C196.601 13.252 196.141 13.432 195.797 13.792C195.461 14.152 195.293 14.676 195.293 15.364V19H194.201V12.424H195.293V13.36C195.509 13.024 195.801 12.764 196.169 12.58C196.545 12.396 196.957 12.304 197.405 12.304ZM203.209 13.324V17.2C203.209 17.52 203.277 17.748 203.413 17.884C203.549 18.012 203.785 18.076 204.121 18.076H204.925V19H203.941C203.333 19 202.877 18.86 202.573 18.58C202.269 18.3 202.117 17.84 202.117 17.2V13.324H201.265V12.424H202.117V10.768H203.209V12.424H204.925V13.324H203.209ZM206.812 11.356C206.604 11.356 206.428 11.284 206.284 11.14C206.14 10.996 206.068 10.82 206.068 10.612C206.068 10.404 206.14 10.228 206.284 10.084C206.428 9.94 206.604 9.868 206.812 9.868C207.012 9.868 207.18 9.94 207.316 10.084C207.46 10.228 207.532 10.404 207.532 10.612C207.532 10.82 207.46 10.996 207.316 11.14C207.18 11.284 207.012 11.356 206.812 11.356ZM207.34 12.424V19H206.248V12.424H207.34ZM211.877 13.324H210.497V19H209.405V13.324H208.553V12.424H209.405V11.956C209.405 11.22 209.593 10.684 209.969 10.348C210.353 10.004 210.965 9.832 211.805 9.832V10.744C211.325 10.744 210.985 10.84 210.785 11.032C210.593 11.216 210.497 11.524 210.497 11.956V12.424H211.877V13.324ZM213.715 11.356C213.507 11.356 213.331 11.284 213.187 11.14C213.043 10.996 212.971 10.82 212.971 10.612C212.971 10.404 213.043 10.228 213.187 10.084C213.331 9.94 213.507 9.868 213.715 9.868C213.915 9.868 214.083 9.94 214.219 10.084C214.363 10.228 214.435 10.404 214.435 10.612C214.435 10.82 214.363 10.996 214.219 11.14C214.083 11.284 213.915 11.356 213.715 11.356ZM214.243 12.424V19H213.151V12.424H214.243ZM215.696 15.7C215.696 15.02 215.832 14.428 216.104 13.924C216.376 13.412 216.752 13.016 217.232 12.736C217.72 12.456 218.276 12.316 218.9 12.316C219.708 12.316 220.372 12.512 220.892 12.904C221.42 13.296 221.768 13.84 221.936 14.536H220.76C220.648 14.136 220.428 13.82 220.1 13.588C219.78 13.356 219.38 13.24 218.9 13.24C218.276 13.24 217.772 13.456 217.388 13.888C217.004 14.312 216.812 14.916 216.812 15.7C216.812 16.492 217.004 17.104 217.388 17.536C217.772 17.968 218.276 18.184 218.9 18.184C219.38 18.184 219.78 18.072 220.1 17.848C220.42 17.624 220.64 17.304 220.76 16.888H221.936C221.76 17.56 221.408 18.1 220.88 18.508C220.352 18.908 219.692 19.108 218.9 19.108C218.276 19.108 217.72 18.968 217.232 18.688C216.752 18.408 216.376 18.012 216.104 17.5C215.832 16.988 215.696 16.388 215.696 15.7ZM222.985 15.688C222.985 15.016 223.121 14.428 223.393 13.924C223.665 13.412 224.037 13.016 224.509 12.736C224.989 12.456 225.521 12.316 226.105 12.316C226.681 12.316 227.181 12.44 227.605 12.688C228.029 12.936 228.345 13.248 228.553 13.624V12.424H229.657V19H228.553V17.776C228.337 18.16 228.013 18.48 227.581 18.736C227.157 18.984 226.661 19.108 226.093 19.108C225.509 19.108 224.981 18.964 224.509 18.676C224.037 18.388 223.665 17.984 223.393 17.464C223.121 16.944 222.985 16.352 222.985 15.688ZM228.553 15.7C228.553 15.204 228.453 14.772 228.253 14.404C228.053 14.036 227.781 13.756 227.437 13.564C227.101 13.364 226.729 13.264 226.321 13.264C225.913 13.264 225.541 13.36 225.205 13.552C224.869 13.744 224.601 14.024 224.401 14.392C224.201 14.76 224.101 15.192 224.101 15.688C224.101 16.192 224.201 16.632 224.401 17.008C224.601 17.376 224.869 17.66 225.205 17.86C225.541 18.052 225.913 18.148 226.321 18.148C226.729 18.148 227.101 18.052 227.437 17.86C227.781 17.66 228.053 17.376 228.253 17.008C228.453 16.632 228.553 16.196 228.553 15.7ZM232.834 13.324V17.2C232.834 17.52 232.902 17.748 233.038 17.884C233.174 18.012 233.41 18.076 233.746 18.076H234.55V19H233.566C232.958 19 232.502 18.86 232.198 18.58C231.894 18.3 231.742 17.84 231.742 17.2V13.324H230.89V12.424H231.742V10.768H232.834V12.424H234.55V13.324H232.834ZM236.437 11.356C236.229 11.356 236.053 11.284 235.909 11.14C235.765 10.996 235.693 10.82 235.693 10.612C235.693 10.404 235.765 10.228 235.909 10.084C236.053 9.94 236.229 9.868 236.437 9.868C236.637 9.868 236.805 9.94 236.941 10.084C237.085 10.228 237.157 10.404 237.157 10.612C237.157 10.82 237.085 10.996 236.941 11.14C236.805 11.284 236.637 11.356 236.437 11.356ZM236.965 12.424V19H235.873V12.424H236.965ZM241.694 19.108C241.078 19.108 240.518 18.968 240.014 18.688C239.518 18.408 239.126 18.012 238.838 17.5C238.558 16.98 238.418 16.38 238.418 15.7C238.418 15.028 238.562 14.436 238.85 13.924C239.146 13.404 239.546 13.008 240.05 12.736C240.554 12.456 241.118 12.316 241.742 12.316C242.366 12.316 242.93 12.456 243.434 12.736C243.938 13.008 244.334 13.4 244.622 13.912C244.918 14.424 245.066 15.02 245.066 15.7C245.066 16.38 244.914 16.98 244.61 17.5C244.314 18.012 243.91 18.408 243.398 18.688C242.886 18.968 242.318 19.108 241.694 19.108ZM241.694 18.148C242.086 18.148 242.454 18.056 242.798 17.872C243.142 17.688 243.418 17.412 243.626 17.044C243.842 16.676 243.95 16.228 243.95 15.7C243.95 15.172 243.846 14.724 243.638 14.356C243.43 13.988 243.158 13.716 242.822 13.54C242.486 13.356 242.122 13.264 241.73 13.264C241.33 13.264 240.962 13.356 240.626 13.54C240.298 13.716 240.034 13.988 239.834 14.356C239.634 14.724 239.534 15.172 239.534 15.7C239.534 16.236 239.63 16.688 239.822 17.056C240.022 17.424 240.286 17.7 240.614 17.884C240.942 18.06 241.302 18.148 241.694 18.148ZM249.706 12.304C250.506 12.304 251.154 12.548 251.65 13.036C252.146 13.516 252.394 14.212 252.394 15.124V19H251.314V15.28C251.314 14.624 251.15 14.124 250.822 13.78C250.494 13.428 250.046 13.252 249.478 13.252C248.902 13.252 248.442 13.432 248.098 13.792C247.762 14.152 247.594 14.676 247.594 15.364V19H246.502V12.424H247.594V13.36C247.81 13.024 248.102 12.764 248.47 12.58C248.846 12.396 249.258 12.304 249.706 12.304Z" fill="#002A48"/>
<defs>
<clipPath id="clip0_12_1467">
<rect width="27" height="27" fill="white" transform="translate(3 3)"/>
</clipPath>
</defs>
</svg>
